<?xml version="1.0" encoding="UTF-8" standalone="no"?>
<svg
   xmlns:dc="http://purl.org/dc/elements/1.1/"
   xmlns:cc="http://creativecommons.org/ns#"
   xmlns:rdf="http://www.w3.org/1999/02/22-rdf-syntax-ns#"
   xmlns:svg="http://www.w3.org/2000/svg"
   xmlns="http://www.w3.org/2000/svg"
   xmlns:sodipodi="http://sodipodi.sourceforge.net/DTD/sodipodi-0.dtd"
   xmlns:inkscape="http://www.inkscape.org/namespaces/inkscape"
   sodipodi:docname="radio2.svg"
   inkscape:version="1.0beta2 (2b71d25, 2019-12-03)"
   id="svg8"
   version="1.1"
   viewBox="0 0 141.67111 115.49785"
   height="115.49785mm"
   width="141.67111mm">
  <style
     id="style848" />
  <defs
     id="defs2">
    <inkscape:perspective
       sodipodi:type="inkscape:persp3d"
       inkscape:vp_x="0 : -33.002157 : 1"
       inkscape:vp_y="0 : 1000 : 0"
       inkscape:vp_z="209.99999 : -33.002157 : 1"
       inkscape:persp3d-origin="105 : -82.50216 : 1"
       id="perspective2743" />
  </defs>
  <sodipodi:namedview
     inkscape:guide-bbox="true"
     id="base"
     pagecolor="#ffffff"
     bordercolor="#666666"
     borderopacity="1.0"
     inkscape:pageopacity="0.0"
     inkscape:pageshadow="2"
     inkscape:zoom="0.5638263"
     inkscape:cx="347.00793"
     inkscape:cy="172.89965"
     inkscape:document-units="mm"
     inkscape:current-layer="layer1"
     inkscape:document-rotation="0"
     showgrid="false"
     inkscape:lockguides="false"
     inkscape:window-width="1280"
     inkscape:window-height="755"
     inkscape:window-x="0"
     inkscape:window-y="23"
     inkscape:window-maximized="0"
     inkscape:snap-global="true"
     showguides="true"
     fit-margin-top="0"
     fit-margin-left="0"
     fit-margin-right="0"
     fit-margin-bottom="0" />
  <metadata
     id="metadata5">
    <rdf:RDF>
      <cc:Work
         rdf:about="">
        <dc:format>image/svg+xml</dc:format>
        <dc:type
           rdf:resource="http://purl.org/dc/dcmitype/StillImage" />
        <dc:title></dc:title>
      </cc:Work>
    </rdf:RDF>
  </metadata>
  <g
     inkscape:label="Layer 1"
     inkscape:groupmode="layer"
     id="layer1"
     transform="translate(-45.790757,-143.7215)">
    <path
       style="fill:none;stroke:#000000;stroke-width:10.3055;stroke-linecap:butt;stroke-linejoin:miter;stroke-miterlimit:4;stroke-dasharray:none;stroke-opacity:1"
       d="M 173.66909,180.71985 C 161.72796,164.8635 167.18972,132.95713 80.807989,155.47986"
       id="path2720"
       inkscape:connector-curvature="0"
       sodipodi:nodetypes="cc" />
    <path
       style="opacity:1;mix-blend-mode:normal;fill:#dca800;fill-opacity:1;fill-rule:evenodd;stroke:#000000;stroke-width:1.70034;stroke-linecap:butt;stroke-linejoin:miter;stroke-miterlimit:4;stroke-dasharray:none;stroke-opacity:1"
       d="m 50.493683,252.76741 c -16.111067,-49.2567 23.405463,-74.04804 23.405463,-74.04804 0,0 125.928654,-26.9497 111.580034,17.92722 -13.81361,43.20359 51.36157,75.10413 -134.985497,56.12082 z"
       id="path21"
       inkscape:connector-curvature="0"
       sodipodi:nodetypes="ccsc" />
    <ellipse
       style="fill:#4a5ac8;fill-opacity:1;fill-rule:evenodd;stroke:#000000;stroke-width:1.50738;stroke-miterlimit:5.6;stroke-dasharray:none;stroke-opacity:1"
       id="path23"
       cx="148.47415"
       cy="225.47891"
       rx="22.935575"
       ry="23.311029"
       transform="matrix(0.99990483,-0.01379616,0.01177863,0.99993063,0,0)" />
    <rect
       style="fill:#ffffff;fill-opacity:1;fill-rule:evenodd;stroke:#000000;stroke-width:0.503289;stroke-miterlimit:4;stroke-dasharray:none;stroke-opacity:1"
       id="rect2555"
       width="55.535751"
       height="9.6004076"
       x="54.715137"
       y="232.62241" />
    <path
       inkscape:connector-curvature="0"
       id="path2557-3"
       d="m 60.631162,235.32009 v 5.70224"
       style="fill:none;stroke:#000000;stroke-width:0.8;stroke-linecap:butt;stroke-linejoin:miter;stroke-miterlimit:5.6;stroke-dasharray:none;stroke-opacity:1" />
    <path
       inkscape:connector-curvature="0"
       id="path2557-8"
       d="m 69.491744,235.32009 v 5.70224"
       style="fill:none;stroke:#000000;stroke-width:0.8;stroke-linecap:butt;stroke-linejoin:miter;stroke-miterlimit:5.6;stroke-dasharray:none;stroke-opacity:1" />
    <path
       inkscape:connector-curvature="0"
       id="path2557-2"
       d="m 87.212917,235.32009 v 5.70224"
       style="fill:none;stroke:#000000;stroke-width:0.8;stroke-linecap:butt;stroke-linejoin:miter;stroke-miterlimit:5.6;stroke-dasharray:none;stroke-opacity:1" />
    <path
       style="fill:none;stroke:#000000;stroke-width:0.8;stroke-linecap:butt;stroke-linejoin:miter;stroke-miterlimit:5.6;stroke-dasharray:none;stroke-opacity:1"
       d="m 78.352336,235.32009 v 5.70224"
       id="path2557-1-3"
       inkscape:connector-curvature="0" />
    <path
       style="fill:none;stroke:#000000;stroke-width:0.8;stroke-linecap:butt;stroke-linejoin:miter;stroke-miterlimit:5.6;stroke-dasharray:none;stroke-opacity:1"
       d="m 96.073518,235.32009 v 5.70224"
       id="path2557-96-0"
       inkscape:connector-curvature="0" />
    <path
       style="fill:none;stroke:#000000;stroke-width:0.8;stroke-linecap:butt;stroke-linejoin:miter;stroke-miterlimit:5.6;stroke-dasharray:none;stroke-opacity:1"
       d="m 104.9341,235.32009 v 5.70224"
       id="path2557-2-3"
       inkscape:connector-curvature="0" />
    <path
       style="fill:#000000;fill-opacity:1;stroke:#000000;stroke-width:1.8289;stroke-linecap:butt;stroke-linejoin:miter;stroke-miterlimit:5.6;stroke-dasharray:none;stroke-opacity:1"
       d="m 64.984527,154.80517 10.193876,-5.71644 3.81571,14.98918 -11.686312,-0.1464 z"
       id="path2759"
       inkscape:connector-curvature="0"
       sodipodi:nodetypes="ccccc" />
    <g
       id="g2838"
       transform="matrix(0.43949548,0,0,0.43949548,151.12836,223.31922)"
       inkscape:label="Rendered Gears"
       style="stroke-width:1.82782;stroke-miterlimit:5.6;stroke-dasharray:none">
      <path
         id="path2836"
         d="m 31.93432,-2.10173 1.7275,0.77915 1.70911,1.02445 v 0.59626 l -1.70911,1.02445 -1.7275,0.77915 -0.06438,0.81805 1.58435,1.0398 1.5278,1.27919 -0.09327,0.58892 -1.84833,0.74447 -1.82812,0.49932 -0.19156,0.79791 1.40219,1.27484 1.30888,1.50245 -0.18425,0.56708 -1.94203,0.44616 -1.88373,0.20719 -0.31402,0.75811 1.18549,1.4785 1.05774,1.68871 -0.2707,0.53127 -1.98791,0.13687 -1.89295,-0.09004 -0.42875,0.69966 0.93961,1.64575 0.78054,1.83338 -0.35047,0.48238 -1.98485,-0.17579 -1.85556,-0.38505 -0.53292,0.62397 0.67059,1.77247 0.48412,1.93291 -0.42162,0.42162 -1.93291,-0.48412 -1.77247,-0.67059 -0.62397,0.53292 0.38505,1.85556 0.17579,1.98485 -0.48238,0.35047 -1.83338,-0.78054 -1.64575,-0.93961 -0.69966,0.42875 0.09004,1.89295 -0.13687,1.98791 -0.53127,0.2707 -1.68871,-1.05774 -1.4785,-1.18549 -0.75811,0.31402 -0.20719,1.88373 -0.44616,1.94203 -0.56708,0.18425 L 9.14423,32.423 7.86939,31.02081 7.07148,31.21237 6.57216,33.04049 5.82769,34.88882 5.23877,34.98209 3.95958,33.45429 2.91978,31.86994 2.10173,31.93432 1.32258,33.66182 0.29813,35.37093 h -0.59626 l -1.02445,-1.70911 -0.77915,-1.7275 -0.81805,-0.06438 -1.0398,1.58435 -1.27919,1.5278 -0.58892,-0.09327 -0.74447,-1.84833 -0.49932,-1.82812 -0.79791,-0.19156 -1.27484,1.40219 -1.50245,1.30888 -0.56708,-0.18425 -0.44616,-1.94203 -0.20719,-1.88373 -0.75811,-0.31402 -1.4785,1.18549 -1.68871,1.05774 -0.53127,-0.2707 -0.13687,-1.98791 0.09004,-1.89295 -0.69966,-0.42875 -1.64575,0.93961 -1.83338,0.78054 -0.48238,-0.35047 0.17579,-1.98485 0.38505,-1.85556 -0.62397,-0.53292 -1.77247,0.67059 -1.93291,0.48412 -0.42162,-0.42162 0.48412,-1.93291 0.67059,-1.77247 -0.53292,-0.62397 -1.85556,0.38505 -1.98485,0.17579 -0.35047,-0.48238 0.78054,-1.83338 0.93961,-1.64575 -0.42875,-0.69966 -1.89295,0.09004 -1.98791,-0.13687 -0.2707,-0.53127 1.05774,-1.68871 1.18549,-1.4785 -0.31402,-0.75811 -1.88373,-0.20719 -1.94203,-0.44616 -0.18425,-0.56708 1.30888,-1.50245 1.40219,-1.27484 -0.19156,-0.79791 -1.82812,-0.49932 -1.84833,-0.74447 -0.09327,-0.58892 1.5278,-1.27919 1.58435,-1.0398 -0.06438,-0.81805 -1.7275,-0.77915 -1.70911,-1.02445 v -0.59626 l 1.70911,-1.02445 1.7275,-0.77915 0.06438,-0.81805 -1.58435,-1.0398 -1.5278,-1.27919 0.09327,-0.58892 1.84833,-0.74447 1.82812,-0.49932 0.19156,-0.79791 -1.40219,-1.27484 -1.30888,-1.50245 0.18425,-0.56708 1.94203,-0.44616 1.88373,-0.20719 0.31402,-0.75811 -1.18549,-1.4785 -1.05774,-1.68871 0.2707,-0.53127 1.98791,-0.13687 1.89295,0.09004 0.42875,-0.69966 -0.93961,-1.64575 -0.78054,-1.83338 0.35047,-0.48238 1.98485,0.17579 1.85556,0.38505 0.53292,-0.62397 -0.67059,-1.77247 -0.48412,-1.93291 0.42162,-0.42162 1.93291,0.48412 1.77247,0.67059 0.62397,-0.53292 -0.38505,-1.85556 -0.17579,-1.98485 0.48238,-0.35047 1.83338,0.78054 1.64575,0.93961 0.69966,-0.42875 -0.09004,-1.89295 0.13687,-1.98791 0.53127,-0.2707 1.68871,1.05774 1.4785,1.18549 0.75811,-0.31402 0.20719,-1.88373 0.44616,-1.94203 0.56708,-0.18425 1.50245,1.30888 1.27484,1.40219 0.79791,-0.19156 0.49932,-1.82812 0.74447,-1.84833 0.58892,-0.09327 1.27919,1.5278 1.0398,1.58435 0.81805,-0.06438 0.77915,-1.7275 1.02445,-1.70911 h 0.59626 l 1.02445,1.70911 0.77915,1.7275 0.81805,0.06438 1.0398,-1.58435 1.27919,-1.5278 0.58892,0.09327 0.74447,1.84833 0.49932,1.82812 0.79791,0.19156 1.27484,-1.40219 1.50245,-1.30888 0.56708,0.18425 0.44616,1.94203 0.20719,1.88373 0.75811,0.31402 1.4785,-1.18549 1.68871,-1.05774 0.53127,0.2707 0.13687,1.98791 -0.09004,1.89295 0.69966,0.42875 1.64575,-0.93961 1.83338,-0.78054 0.48238,0.35047 -0.17579,1.98485 -0.38505,1.85556 0.62397,0.53292 1.77247,-0.67059 1.93291,-0.48412 0.42162,0.42162 -0.48412,1.93291 -0.67059,1.77247 0.53292,0.62397 1.85556,-0.38505 1.98485,-0.17579 0.35047,0.48238 -0.78054,1.83338 -0.93961,1.64575 0.42875,0.69966 1.89295,-0.09004 1.98791,0.13687 0.2707,0.53127 -1.05774,1.68871 -1.18549,1.4785 0.31402,0.75811 1.88373,0.20719 1.94203,0.44616 0.18425,0.56708 -1.30888,1.50245 -1.40219,1.27484 0.19156,0.79791 1.82812,0.49932 1.84833,0.74447 0.09327,0.58892 -1.5278,1.27919 -1.58435,1.0398 z"
         style="fill:none;stroke:#000000;stroke-width:1.82782;stroke-miterlimit:5.6;stroke-dasharray:none"
         inkscape:connector-curvature="0" />
    </g>
    <g
       id="g2892"
       transform="matrix(0.55522253,0,0,0.55522253,95.819486,198.51572)"
       inkscape:label="Rendered Gears"
       style="fill:#4a5ac8;fill-opacity:1;stroke-width:1.80108;stroke-miterlimit:5.6;stroke-dasharray:none">
      <path
         id="path2890"
         d="m 15.04106,-1.89138 1.75091,0.56982 1.73462,1.07105 v 0.50102 l -1.73462,1.07105 -1.75091,0.56982 -0.1517,0.95775 1.48914,1.083 1.31875,1.55465 -0.15482,0.4765 -1.9807,0.4826 -1.8413,8.7e-4 -0.44023,0.864 1.08158,1.49016 0.7738,1.88608 -0.2945,0.40534 -2.03288,-0.15309 -1.75146,-0.56817 -0.68567,0.68567 0.56817,1.75146 0.15309,2.03288 -0.40534,0.2945 -1.88608,-0.7738 -1.49016,-1.08158 -0.864,0.44023 -8.7e-4,1.8413 -0.4826,1.9807 -0.4765,0.15482 -1.55465,-1.31875 -1.083,-1.48914 -0.95775,0.1517 -0.56982,1.75091 -1.07105,1.73462 h -0.50102 l -1.07105,-1.73462 -0.56982,-1.75091 -0.95775,-0.1517 -1.083,1.48914 -1.55465,1.31875 -0.4765,-0.15482 -0.4826,-1.9807 -8.7e-4,-1.8413 -0.864,-0.44023 -1.49016,1.08158 -1.88608,0.7738 -0.40534,-0.2945 0.15309,-2.03288 0.56817,-1.75146 -0.68567,-0.68567 -1.75146,0.56817 -2.03288,0.15309 -0.2945,-0.40534 0.7738,-1.88608 1.08158,-1.49016 -0.44023,-0.864 -1.8413,-8.7e-4 -1.9807,-0.4826 -0.15482,-0.4765 1.31875,-1.55465 1.48914,-1.083 -0.1517,-0.95775 -1.75091,-0.56982 -1.73462,-1.07105 v -0.50102 l 1.73462,-1.07105 1.75091,-0.56982 0.1517,-0.95775 -1.48914,-1.083 -1.31875,-1.55465 0.15482,-0.4765 1.9807,-0.4826 1.8413,-8.7e-4 0.44023,-0.864 -1.08158,-1.49016 -0.7738,-1.88608 0.2945,-0.40534 2.03288,0.15309 1.75146,0.56817 0.68567,-0.68567 -0.56817,-1.75146 -0.15309,-2.03288 0.40534,-0.2945 1.88608,0.7738 1.49016,1.08158 0.864,-0.44023 8.7e-4,-1.8413 0.4826,-1.9807 0.4765,-0.15482 1.55465,1.31875 1.083,1.48914 0.95775,-0.1517 0.56982,-1.75091 1.07105,-1.73462 h 0.50102 l 1.07105,1.73462 0.56982,1.75091 0.95775,0.1517 1.083,-1.48914 1.55465,-1.31875 0.4765,0.15482 0.4826,1.9807 8.7e-4,1.8413 0.864,0.44023 1.49016,-1.08158 1.88608,-0.7738 0.40534,0.2945 -0.15309,2.03288 -0.56817,1.75146 0.68567,0.68567 1.75146,-0.56817 2.03288,-0.15309 0.2945,0.40534 -0.7738,1.88608 -1.08158,1.49016 0.44023,0.864 1.8413,8.7e-4 1.9807,0.4826 0.15482,0.4765 -1.31875,1.55465 -1.48914,1.083 z"
         style="fill:#4a5ac8;fill-opacity:1;stroke:#000000;stroke-width:1.80108;stroke-miterlimit:5.6;stroke-dasharray:none"
         inkscape:connector-curvature="0" />
    </g>
  </g>
</svg>
