<?xml version="1.0" encoding="UTF-8" standalone="no"?>
<svg
   xmlns:dc="http://purl.org/dc/elements/1.1/"
   xmlns:cc="http://creativecommons.org/ns#"
   xmlns:rdf="http://www.w3.org/1999/02/22-rdf-syntax-ns#"
   xmlns:svg="http://www.w3.org/2000/svg"
   xmlns="http://www.w3.org/2000/svg"
   xmlns:sodipodi="http://sodipodi.sourceforge.net/DTD/sodipodi-0.dtd"
   xmlns:inkscape="http://www.inkscape.org/namespaces/inkscape"
   width="141.58609mm"
   height="102.94765mm"
   viewBox="0 0 141.58609 102.94765"
   version="1.1"
   id="svg8"
   inkscape:version="1.0beta2 (2b71d25, 2019-12-03)"
   sodipodi:docname="radio1.svg">
  <style
     id="style848"></style>
  <defs
     id="defs2">
    <inkscape:perspective
       id="perspective2743"
       inkscape:persp3d-origin="105 : -95.052357 : 1"
       inkscape:vp_z="210 : -45.552358 : 1"
       inkscape:vp_y="0 : 999.99998 : 0"
       inkscape:vp_x="0 : -45.552358 : 1"
       sodipodi:type="inkscape:persp3d" />
  </defs>
  <sodipodi:namedview
     fit-margin-bottom="0"
     fit-margin-right="0"
     fit-margin-left="0"
     fit-margin-top="0"
     showguides="false"
     inkscape:snap-global="true"
     inkscape:window-maximized="0"
     inkscape:window-y="23"
     inkscape:window-x="0"
     inkscape:window-height="755"
     inkscape:window-width="1280"
     inkscape:lockguides="false"
     showgrid="false"
     inkscape:document-rotation="0"
     inkscape:current-layer="layer1"
     inkscape:document-units="mm"
     inkscape:cy="20.275819"
     inkscape:cx="156.77025"
     inkscape:zoom="0.51009854"
     inkscape:pageshadow="2"
     inkscape:pageopacity="0.0"
     borderopacity="1.0"
     bordercolor="#666666"
     pagecolor="#ffffff"
     id="base" />
  <metadata
     id="metadata5">
    <rdf:RDF>
      <cc:Work
         rdf:about="">
        <dc:format>image/svg+xml</dc:format>
        <dc:type
           rdf:resource="http://purl.org/dc/dcmitype/StillImage" />
        <dc:title></dc:title>
      </cc:Work>
    </rdf:RDF>
  </metadata>
  <g
     transform="translate(-45.833038,-156.23177)"
     id="layer1"
     inkscape:groupmode="layer"
     inkscape:label="Layer 1">
    <path
       sodipodi:nodetypes="cc"
       inkscape:connector-curvature="0"
       id="path2720"
       d="M 173.8304,189.28366 C 162.65062,173.33683 162.65852,148.29984 95.277787,160.37394"
       style="fill:none;stroke:#000000;stroke-width:1.72158;stroke-linecap:butt;stroke-linejoin:miter;stroke-miterlimit:4;stroke-dasharray:none;stroke-opacity:1" />
    <path
       inkscape:connector-curvature="0"
       d="m -22.743142,56.395432 c -0.51672,-1.44165 -1.70733,-2.72278 -2.87933,-4.01142 -0.72773,-0.93865 -1.80597,-1.74801 -2.82432,-2.580094 -1.68649,-1.11703 -3.13806,-2.34223 -4.73772,-3.4996 -0.93852,-0.65977 -1.82695,-1.35084 -2.88562,-1.94875 -1.13515,-0.59158 -2.31025,-1.15707 -3.5689,-1.65771 -1.33338,-0.52813 -2.81474,-0.88455 -4.36992,-1.11854 -1.76007,-0.18587 -3.55277,-0.24798 -5.33795,-0.29058 -1.06151,-0.0249 -2.12369,-0.0286 -3.18582,-0.0225 -1.24303,-0.0225 -2.46356,0.13837 -3.68282,0.25431 -2.05586,0.16621 -4.13605,0.2043 -6.20913,0.19396 -3.02745,-0.0383 -5.99124,-0.36501 -8.87245,-0.88869 -2.59716,-0.4671 -4.96276,-1.24371 -7.2828,-2.04934 -1.64338,-0.57124 -3.22108,-1.20506 -4.67911,-1.92653 -1.42794,-0.69208 -2.90971,-1.34746 -4.38935,-2.00194 -1.69796,-0.8063 -3.52325,-1.49397 -5.419387,-2.13083 -3.828506,-1.16214 -7.606191,-2.42925 -11.714721,-3.23188 -2.81431,-0.45507 -5.74361,-0.20926 -8.58332,0.0314 -1.54542,0.14151 -0.80499,0.0751 -2.22111,0.19985 0,0 -4.22732,1.84509 -4.22732,1.84509 v 0 c 1.46563,-0.15233 0.70486,-0.0755 2.28264,-0.22939 2.80184,-0.27765 5.68399,-0.54776 8.49478,-0.16127 4.17929,0.65368 8.10563,1.76105 11.733657,3.12594 1.738667,0.72378 3.412711,1.49584 5.185535,2.19145 1.480846,0.63792 2.913406,1.3091 4.262736,2.03911 1.58182,0.67678 3.21961,1.30417 4.90643,1.88977 2.35179,0.82076 4.75401,1.61891 7.38938,2.09327 2.89181,0.53017 5.86825,0.8743 8.90055,0.98097 2.04514,0.0442 4.09671,0.0233 6.1342,-0.0973 1.19223,-0.0903 2.37053,-0.26312 3.57765,-0.26509 1.07656,0.002 2.15285,-0.0101 3.22942,-0.008 1.7674,0.0139 3.54522,0.0356 5.28719,0.22759 1.51295,0.2137 2.97595,0.5223 4.29069,1.01657 1.22617,0.48947 2.35404,1.05171 3.42486,1.6513 1.07286,0.57899 2.08402,1.19998 3.02281,1.8525 1.59916,1.14667 3.21302,2.2887 4.62591,3.517164 1.01226,0.82 2.0653,1.62576 2.9547,2.49285 1.22688,1.27393 2.29233,2.53133 2.54637,4.00617 0,0 4.82159,-1.49002 4.82159,-1.49002 z"
       id="path868"
       style="fill:#000000;fill-opacity:1;fill-rule:evenodd;stroke:#000000;stroke-width:0.658412;stroke-miterlimit:5.6;stroke-dasharray:none;stroke-opacity:1" />
    <rect
       y="71.915398"
       x="-118.6711"
       height="46.869045"
       width="80.886909"
       id="rect10"
       style="fill:#0000ff;fill-rule:evenodd;stroke-width:0.264583" />
    <path
       inkscape:connector-curvature="0"
       id="path19"
       d="m -79.314518,160.6237 c 0,-3.43049 -0.222616,-9.58929 0.755954,-12.85119 0.04699,-0.15662 5.570431,-4.81448 6.80357,-6.04762 9.497287,-9.49728 21.282635,-18.89881 35.529765,-18.89881 11.32138,0 12.76489,2.05193 22.67857,7.55953 2.72852,1.51584 12.3343298,5.91637 13.60713982,10.58333 0.99451798,3.64658 0.09,7.5606 0,11.33929 -0.45494,19.1075 1.47695798,31.03516 -11.33928982,46.11308 -4.56317,5.36845 -10.7174,10.45017 -17.3869,12.8512 -2.37089,0.85352 -5.04206,0.10945 -7.55952,0 -11.94898,-0.51952 -22.05004,-4.32427 -32.505956,-9.82739 -3.424621,-1.80243 -19.194193,-10.25295 -20.410712,-15.11903 -1.775447,-7.10178 3.864057,-18.44336 4.535712,-25.70239 1.763889,0 3.527778,0 5.291667,0 z"
       style="fill:none;stroke:#000000;stroke-width:0.264583px;stroke-linecap:butt;stroke-linejoin:miter;stroke-opacity:1" />
    <path
       sodipodi:nodetypes="ccsc"
       inkscape:connector-curvature="0"
       id="path21"
       d="m 50.493683,253.2801 c -16.111067,-44.74825 23.405463,-67.27044 23.405463,-67.27044 0,0 125.928654,-24.483 111.580034,16.28634 -13.81361,39.24918 51.36157,68.22987 -134.985497,50.9841 z"
       style="opacity:1;mix-blend-mode:normal;fill:#dca800;fill-opacity:1;fill-rule:evenodd;stroke:#000000;stroke-width:1.62066;stroke-linecap:butt;stroke-linejoin:miter;stroke-miterlimit:4;stroke-dasharray:none;stroke-opacity:1" />
    <path
       inkscape:connector-curvature="0"
       d="m -86.863953,138.31597 c -0.502692,0 0.02612,-0.0318 -0.850595,0.31885 -0.931969,0.37278 -1.712709,0.64921 -2.445846,1.38234 -0.929222,0.92923 -1.10944,2.25108 -0.821655,3.46801 a 14.330826,12.642966 0 0 0 -6.54172,7.39799 l -3.335191,-3.80235 c 3.6e-4,0.0584 -0.0403,0.18855 -0.0403,0.48576 0,0.87931 -0.017,1.79404 0.10645,2.65823 0.0549,0.38445 0.22055,1.017 0.53124,1.2759 0.12176,0.10148 0.298488,0.11729 0.425292,0.21239 0.622125,0.46659 1.070147,0.98942 1.842265,1.22369 a 14.330826,12.642966 0 0 0 -0.09715,1.46813 14.330826,12.642966 0 0 0 1.564246,5.7428 l -7.349423,1.02888 c 0.93955,0 1.67996,0.7391 2.55178,0.95705 0.27508,0.0688 0.56705,0 0.85059,0 1.503642,0 2.721154,-0.1035 4.147041,-0.63821 0.119655,-0.0449 0.19957,-0.16648 0.318844,-0.21238 0.05907,-0.0227 0.119795,-0.0405 0.180351,-0.0589 a 14.330826,12.642966 0 0 0 4.547526,3.94343 l -2.707844,2.70785 c 0.226197,0 0.276071,0.0633 0.531749,0.10593 0.601612,0.10028 2.009891,0.11018 2.658237,-0.10593 1.043646,-0.34789 1.587759,-0.94354 1.87017,-1.67845 a 14.330826,12.642966 0 0 0 4.448823,0.83509 l -2.278414,4.67103 c 0,0.33544 1.161812,0.28589 1.382345,0.21239 0.218858,-0.0729 0.818821,-0.50204 1.062984,-0.63769 0.207838,-0.11546 0.445921,-0.179 0.638204,-0.31884 1.172242,-0.85254 1.706364,-2.47577 1.799373,-4.02094 a 14.330826,12.642966 0 0 0 5.355746,-1.62316 l 0.39429,3.41116 c 0.893927,0 1.711434,-0.0392 2.551782,-0.31936 0.05203,-0.0173 0.09632,-0.0602 0.144696,-0.0858 -0.0038,-0.0956 0.04951,-0.24858 0.0677,-0.33952 0.08733,-0.43667 0.106452,-0.8221 0.106452,-1.27589 0,-0.86196 0.08751,-2.20787 -0.425296,-2.97708 -0.04867,-0.073 -0.101497,-0.13934 -0.155546,-0.20412 a 14.330826,12.642966 0 0 0 4.405416,-9.11934 14.330826,12.642966 0 0 0 -0.03359,-0.86145 l 6.203754,1.67846 c 0,-0.37511 -0.206563,-0.8326 -0.318844,-1.16944 -0.106328,-0.31899 -0.168471,-0.65631 -0.318844,-0.95705 -0.146542,-0.29308 -0.582742,-0.39783 -0.850593,-0.53175 -1.390142,-0.69507 -3.180064,-0.55097 -4.882907,-0.26768 a 14.330826,12.642966 0 0 0 -2.899563,-5.74436 l 7.037813,-2.70681 c 0,-0.89767 -1.394571,-1.282 -2.020033,-1.59473 -1.092568,-0.54628 -3.296396,0.31893 -4.359423,0.74414 -0.323292,0.12932 -0.765061,0.21032 -1.063501,0.31884 -0.515397,0.18742 -0.374975,0.23449 -0.850595,0.53175 -0.423095,0.26444 -0.724776,0.49192 -0.936892,0.74828 a 14.330826,12.642966 0 0 0 -4.102077,-2.05776 l 5.677173,-3.58169 c -0.772099,-0.38605 -1.730862,-0.19715 -2.551782,-0.10594 -0.42237,0.0469 -1.089006,0.0894 -1.488797,0.21239 -0.227243,0.0699 -0.419672,0.22519 -0.638204,0.31885 -0.478057,0.20488 -1.084265,0.34032 -1.594734,0.53175 -0.615281,0.23073 -1.705922,1.19075 -2.287717,1.98179 a 14.330826,12.642966 0 0 0 -2.051553,-0.13023 14.330826,12.642966 0 0 0 -4.798158,0.72967 z m 13.435873,30.00489 c 0.002,0.0506 0.01866,0.0858 0.0677,0.0858 0.03544,0 0.03544,-0.10594 0,-0.10594 -0.02441,0 -0.04617,0.009 -0.0677,0.0202 z m -27.43088,-21.24005 c -1.9e-4,-0.0289 -0.007,-0.046 -0.0403,-0.046 z"
       style="fill:none;fill-opacity:1;fill-rule:evenodd;stroke:#000000;stroke-width:1;stroke-miterlimit:4;stroke-dasharray:none;stroke-opacity:1"
       id="path870" />
    <g
       id="g2696">
      <ellipse
         style="fill:#4a5ac8;fill-opacity:1;fill-rule:evenodd;stroke:#000000;stroke-width:1.75136;stroke-miterlimit:5.6;stroke-dasharray:none;stroke-opacity:1"
         id="path23"
         cx="149.90253"
         cy="227.95358"
         rx="26.647947"
         ry="27.084173"
         transform="matrix(0.99990483,-0.01379616,0.01177863,0.99993063,0,0)" />
      <g
         id="g1756"
         transform="matrix(0.34155327,0,0,0.34156095,152.57092,225.42835)"
         inkscape:label="Rendered Gears"
         style="stroke-width:1.2819;stroke-miterlimit:4;stroke-dasharray:none">
        <path
           id="path1754"
           d="m 65.65435,-2.20013 1.70826,0.8773 1.69661,0.99927 v 0.64712 l -1.69661,0.99927 -1.70826,0.8773 -0.02977,0.7577 1.63416,1.00863 1.61298,1.1293 -0.05077,0.64513 -1.76979,0.86307 -1.77182,0.74057 -0.08913,0.75303 1.54999,1.13373 1.51941,1.25237 -0.10124,0.63916 -1.83205,0.72156 -1.82446,0.59927 -0.14793,0.74371 1.45625,1.25185 1.41647,1.36772 -0.15107,0.62925 -1.88302,0.57559 -1.86586,0.45428 -0.20582,0.72981 1.35354,1.36224 1.30479,1.47465 -0.19997,0.61545 -1.92237,0.42608 -1.89575,0.30648 -0.26246,0.71141 1.2425,1.46425 1.18507,1.57247 -0.24765,0.59787 -1.94987,0.27393 -1.91396,0.1568 -0.31746,0.68863 1.12378,1.55721 1.05804,1.6606 -0.29379,0.5766 -1.96535,0.1201 -1.92036,0.0062 -0.37051,0.6616 0.99814,1.64059 0.92449,1.73849 -0.33812,0.55177 -1.96872,-0.03447 -1.91492,-0.14453 -0.42128,0.63048 0.86634,1.71384 0.78524,1.80567 -0.38037,0.52354 -1.95995,-0.18882 -1.89767,-0.29434 -0.46945,0.59549 0.72921,1.77653 0.64114,1.86172 -0.42027,0.49208 -1.93909,-0.34202 -1.86873,-0.44232 -0.51472,0.55683 0.58757,1.82826 0.4931,1.90628 -0.45759,0.45759 -1.90628,-0.4931 -1.82826,-0.58757 -0.55683,0.51472 0.44232,1.86873 0.34202,1.93909 -0.49208,0.42027 -1.86172,-0.64114 -1.77653,-0.72921 -0.59549,0.46945 0.29434,1.89767 0.18882,1.95995 -0.52354,0.38037 -1.80567,-0.78524 -1.71384,-0.86634 -0.63048,0.42128 0.14453,1.91492 0.03447,1.96872 -0.55177,0.33812 -1.73849,-0.92449 -1.64059,-0.99814 -0.6616,0.37051 -0.0062,1.92036 -0.1201,1.96535 -0.5766,0.29379 -1.6606,-1.05804 -1.55721,-1.12378 -0.68863,0.31746 -0.1568,1.91396 -0.27393,1.94987 -0.59787,0.24765 -1.57247,-1.18507 -1.46425,-1.2425 -0.71141,0.26246 -0.30648,1.89575 -0.42608,1.92237 -0.61545,0.19997 -1.47465,-1.30479 -1.36224,-1.35354 -0.72981,0.20582 -0.45428,1.86586 -0.57559,1.88302 -0.62925,0.15107 -1.36772,-1.41647 -1.25185,-1.45625 -0.74371,0.14793 -0.59927,1.82446 -0.72156,1.83205 -0.63916,0.10124 L 9.23124,66.74025 8.09751,65.19026 7.34448,65.27939 6.60391,67.05121 5.74084,68.821 5.09571,68.87177 3.96641,67.25879 2.95778,65.62463 2.20008,65.6544 1.32278,67.36266 0.32351,69.05927 h -0.64712 l -0.99927,-1.69661 -0.8773,-1.70826 -0.7577,-0.02977 -1.00863,1.63416 -1.1293,1.61298 -0.64513,-0.05077 -0.86307,-1.76979 -0.74057,-1.77182 -0.75303,-0.08913 -1.13373,1.54999 -1.25237,1.51941 -0.63916,-0.10124 -0.72156,-1.83205 -0.59927,-1.82446 -0.74371,-0.14793 -1.25185,1.45625 -1.36772,1.41647 -0.62925,-0.15107 -0.57559,-1.88302 -0.45428,-1.86586 -0.72981,-0.20582 -1.36224,1.35354 -1.47465,1.30479 -0.61545,-0.19997 -0.42608,-1.92237 -0.30648,-1.89575 -0.71141,-0.26246 -1.46425,1.2425 -1.57247,1.18507 -0.59787,-0.24765 -0.27393,-1.94987 -0.1568,-1.91396 -0.68863,-0.31746 -1.55721,1.12378 -1.6606,1.05804 -0.5766,-0.29379 -0.1201,-1.96535 -0.0062,-1.92036 -0.6616,-0.37051 -1.64059,0.99814 -1.73849,0.92449 -0.55177,-0.33812 0.03447,-1.96872 0.14453,-1.91492 -0.63048,-0.42128 -1.71384,0.86634 -1.80567,0.78524 -0.52354,-0.38037 0.18882,-1.95995 0.29434,-1.89767 -0.59549,-0.46945 -1.77653,0.72921 -1.86172,0.64114 -0.49208,-0.42027 0.34202,-1.93909 0.44232,-1.86873 -0.55683,-0.51472 -1.82826,0.58757 -1.90628,0.4931 -0.45759,-0.45759 0.4931,-1.90628 0.58757,-1.82826 -0.51472,-0.55683 -1.86873,0.44232 -1.93909,0.34202 -0.42027,-0.49208 0.64114,-1.86172 0.72921,-1.77653 -0.46945,-0.59549 -1.89767,0.29434 -1.95995,0.18882 -0.38037,-0.52354 0.78524,-1.80567 0.86634,-1.71384 -0.42128,-0.63048 -1.91492,0.14453 -1.96872,0.03447 -0.33812,-0.55177 0.92449,-1.73849 0.99814,-1.64059 -0.37051,-0.6616 -1.92036,-0.0062 -1.96535,-0.1201 -0.29379,-0.5766 1.05804,-1.6606 1.12378,-1.55721 -0.31746,-0.68863 -1.91396,-0.1568 -1.94987,-0.27393 -0.24765,-0.59787 1.18507,-1.57247 1.2425,-1.46425 -0.26246,-0.71141 -1.89575,-0.30648 -1.92237,-0.42608 -0.19997,-0.61545 1.30479,-1.47465 1.35354,-1.36224 -0.20582,-0.72981 -1.86586,-0.45428 -1.88302,-0.57559 -0.15107,-0.62925 1.41647,-1.36772 1.45625,-1.25185 -0.14793,-0.74371 -1.82446,-0.59927 -1.83205,-0.72156 -0.10124,-0.63916 1.51941,-1.25237 1.54999,-1.13373 -0.08913,-0.75303 -1.77182,-0.74057 -1.76979,-0.86307 -0.05077,-0.64513 1.61298,-1.1293 1.63416,-1.00863 -0.02977,-0.7577 -1.70826,-0.8773 -1.69661,-0.99927 v -0.64712 l 1.69661,-0.99927 1.70826,-0.8773 0.02977,-0.7577 -1.63416,-1.00863 -1.61298,-1.1293 0.05077,-0.64513 1.76979,-0.86307 1.77182,-0.74057 0.08913,-0.75303 -1.54999,-1.13373 -1.51941,-1.25237 0.10124,-0.63916 1.83205,-0.72156 1.82446,-0.59927 0.14793,-0.74371 -1.45625,-1.25185 -1.41647,-1.36772 0.15107,-0.62925 1.88302,-0.57559 1.86586,-0.45428 0.20582,-0.72981 -1.35354,-1.36224 -1.30479,-1.47465 0.19997,-0.61545 1.92237,-0.42608 1.89575,-0.30648 0.26246,-0.71141 -1.2425,-1.46425 -1.18507,-1.57247 0.24765,-0.59787 1.94987,-0.27393 1.91396,-0.1568 0.31746,-0.68863 -1.12378,-1.55721 -1.05804,-1.6606 0.29379,-0.5766 1.96535,-0.1201 1.92036,-0.0062 0.37051,-0.6616 -0.99814,-1.64059 -0.92449,-1.73849 0.33812,-0.55177 1.96872,0.03447 1.91492,0.14453 0.42128,-0.63048 -0.86634,-1.71384 -0.78524,-1.80567 0.38037,-0.52354 1.95995,0.18882 1.89767,0.29434 0.46945,-0.59549 -0.72921,-1.77653 -0.64114,-1.86172 0.42027,-0.49208 1.93909,0.34202 1.86873,0.44232 0.51472,-0.55683 -0.58757,-1.82826 -0.4931,-1.90628 0.45759,-0.45759 1.90628,0.4931 1.82826,0.58757 0.55683,-0.51472 -0.44232,-1.86873 -0.34202,-1.93909 0.49208,-0.42027 1.86172,0.64114 1.77653,0.72921 0.59549,-0.46945 -0.29434,-1.89767 -0.18882,-1.95995 0.52354,-0.38037 1.80567,0.78524 1.71384,0.86634 0.63048,-0.42128 -0.14453,-1.91492 -0.03447,-1.96872 0.55177,-0.33812 1.73849,0.92449 1.64059,0.99814 0.6616,-0.37051 0.0062,-1.92036 0.1201,-1.96535 0.5766,-0.29379 1.6606,1.05804 1.55721,1.12378 0.68863,-0.31746 0.1568,-1.91396 0.27393,-1.94987 0.59787,-0.24765 1.57247,1.18507 1.46425,1.2425 0.71141,-0.26246 0.30648,-1.89575 0.42608,-1.92237 0.61545,-0.19997 1.47465,1.30479 1.36224,1.35354 0.72981,-0.20582 0.45428,-1.86586 0.57559,-1.88302 0.62925,-0.15107 1.36772,1.41647 1.25185,1.45625 0.74371,-0.14793 0.59927,-1.82446 0.72156,-1.83205 0.63916,-0.10124 1.25237,1.51941 1.13373,1.54999 0.75303,-0.08913 0.74057,-1.77182 0.86307,-1.76979 0.64513,-0.05077 1.1293,1.61298 1.00863,1.63416 0.7577,-0.02977 0.8773,-1.70826 0.99927,-1.69661 h 0.64712 l 0.99927,1.69661 0.8773,1.70826 0.7577,0.02977 1.00863,-1.63416 1.1293,-1.61298 0.64513,0.05077 0.86307,1.76979 0.74057,1.77182 0.75303,0.08913 1.13373,-1.54999 1.25237,-1.51941 0.63916,0.10124 0.72156,1.83205 0.59927,1.82446 0.74371,0.14793 1.25185,-1.45625 1.36772,-1.41647 0.62925,0.15107 0.57559,1.88302 0.45428,1.86586 0.72981,0.20582 1.36224,-1.35354 1.47465,-1.30479 0.61545,0.19997 0.42608,1.92237 0.30648,1.89575 0.71141,0.26246 1.46425,-1.2425 1.57247,-1.18507 0.59787,0.24765 0.27393,1.94987 0.1568,1.91396 0.68863,0.31746 1.55721,-1.12378 1.6606,-1.05804 0.5766,0.29379 0.1201,1.96535 0.0062,1.92036 0.6616,0.37051 1.64059,-0.99814 1.73849,-0.92449 0.55177,0.33812 -0.03447,1.96872 -0.14453,1.91492 0.63048,0.42128 1.71384,-0.86634 1.80567,-0.78524 0.52354,0.38037 -0.18882,1.95995 -0.29434,1.89767 0.59549,0.46945 1.77653,-0.72921 1.86172,-0.64114 0.49208,0.42027 -0.34202,1.93909 -0.44232,1.86873 0.55683,0.51472 1.82826,-0.58757 1.90628,-0.4931 0.45759,0.45759 -0.4931,1.90628 -0.58757,1.82826 0.51472,0.55683 1.86873,-0.44232 1.93909,-0.34202 0.42027,0.49208 -0.64114,1.86172 -0.72921,1.77653 0.46945,0.59549 1.89767,-0.29434 1.95995,-0.18882 0.38037,0.52354 -0.78524,1.80567 -0.86634,1.71384 0.42128,0.63048 1.91492,-0.14453 1.96872,-0.03447 0.33812,0.55177 -0.92449,1.73849 -0.99814,1.64059 0.37051,0.6616 1.92036,0.0062 1.96535,0.1201 0.29379,0.5766 -1.05804,1.6606 -1.12378,1.55721 0.31746,0.68863 1.91396,0.1568 1.94987,0.27393 0.24765,0.59787 -1.18507,1.57247 -1.2425,1.46425 0.26246,0.71141 1.89575,0.30648 1.92237,0.42608 0.19997,0.61545 -1.30479,1.47465 -1.35354,1.36224 0.20582,0.72981 1.86586,0.45428 1.88302,0.57559 0.15107,0.62925 -1.41647,1.36772 -1.45625,1.25185 0.14793,0.74371 1.82446,0.59927 1.83205,0.72156 0.10124,0.63916 -1.51941,1.25237 -1.54999,1.13373 0.08913,0.75303 1.77182,0.74057 1.76979,0.86307 0.05077,0.64513 -1.61298,1.1293 -1.63416,1.00863 z"
           style="fill:none;stroke:#000000;stroke-width:1.2819;stroke-miterlimit:4;stroke-dasharray:none"
           inkscape:connector-curvature="0" />
      </g>
    </g>
    <g
       transform="translate(0,9.5358853)"
       id="g2691">
      <ellipse
         transform="matrix(0.99991519,-0.0130232,0.01247773,0.99992215,0,0)"
         ry="10.653778"
         rx="11.104226"
         cy="194.41264"
         cx="76.512352"
         id="path23-5"
         style="fill:#4a5ac8;fill-opacity:1;fill-rule:evenodd;stroke:#000000;stroke-width:0.780416;stroke-miterlimit:5.6;stroke-dasharray:none;stroke-opacity:1" />
      <g
         id="g1817"
         transform="matrix(0.26487983,0,0,0.26663782,78.792787,193.5497)"
         inkscape:label="Rendered Gears"
         style="stroke-width:1.22955;stroke-miterlimit:4;stroke-dasharray:none">
        <path
           id="path1815"
           d="m 31.93432,-2.10173 1.7275,0.77915 1.70911,1.02445 v 0.59626 l -1.70911,1.02445 -1.7275,0.77915 -0.06438,0.81805 1.58435,1.0398 1.5278,1.27919 -0.09327,0.58892 -1.84833,0.74447 -1.82812,0.49932 -0.19156,0.79791 1.40219,1.27484 1.30888,1.50245 -0.18425,0.56708 -1.94203,0.44616 -1.88373,0.20719 -0.31402,0.75811 1.18549,1.4785 1.05774,1.68871 -0.2707,0.53127 -1.98791,0.13687 -1.89295,-0.09004 -0.42875,0.69966 0.93961,1.64575 0.78054,1.83338 -0.35047,0.48238 -1.98485,-0.17579 -1.85556,-0.38505 -0.53292,0.62397 0.67059,1.77247 0.48412,1.93291 -0.42162,0.42162 -1.93291,-0.48412 -1.77247,-0.67059 -0.62397,0.53292 0.38505,1.85556 0.17579,1.98485 -0.48238,0.35047 -1.83338,-0.78054 -1.64575,-0.93961 -0.69966,0.42875 0.09004,1.89295 -0.13687,1.98791 -0.53127,0.2707 -1.68871,-1.05774 -1.4785,-1.18549 -0.75811,0.31402 -0.20719,1.88373 -0.44616,1.94203 -0.56708,0.18425 L 9.14423,32.423 7.86939,31.02081 7.07148,31.21237 6.57216,33.04049 5.82769,34.88882 5.23877,34.98209 3.95958,33.45429 2.91978,31.86994 2.10173,31.93432 1.32258,33.66182 0.29813,35.37093 h -0.59626 l -1.02445,-1.70911 -0.77915,-1.7275 -0.81805,-0.06438 -1.0398,1.58435 -1.27919,1.5278 -0.58892,-0.09327 -0.74447,-1.84833 -0.49932,-1.82812 -0.79791,-0.19156 -1.27484,1.40219 -1.50245,1.30888 -0.56708,-0.18425 -0.44616,-1.94203 -0.20719,-1.88373 -0.75811,-0.31402 -1.4785,1.18549 -1.68871,1.05774 -0.53127,-0.2707 -0.13687,-1.98791 0.09004,-1.89295 -0.69966,-0.42875 -1.64575,0.93961 -1.83338,0.78054 -0.48238,-0.35047 0.17579,-1.98485 0.38505,-1.85556 -0.62397,-0.53292 -1.77247,0.67059 -1.93291,0.48412 -0.42162,-0.42162 0.48412,-1.93291 0.67059,-1.77247 -0.53292,-0.62397 -1.85556,0.38505 -1.98485,0.17579 -0.35047,-0.48238 0.78054,-1.83338 0.93961,-1.64575 -0.42875,-0.69966 -1.89295,0.09004 -1.98791,-0.13687 -0.2707,-0.53127 1.05774,-1.68871 1.18549,-1.4785 -0.31402,-0.75811 -1.88373,-0.20719 -1.94203,-0.44616 -0.18425,-0.56708 1.30888,-1.50245 1.40219,-1.27484 -0.19156,-0.79791 -1.82812,-0.49932 -1.84833,-0.74447 -0.09327,-0.58892 1.5278,-1.27919 1.58435,-1.0398 -0.06438,-0.81805 -1.7275,-0.77915 -1.70911,-1.02445 v -0.59626 l 1.70911,-1.02445 1.7275,-0.77915 0.06438,-0.81805 -1.58435,-1.0398 -1.5278,-1.27919 0.09327,-0.58892 1.84833,-0.74447 1.82812,-0.49932 0.19156,-0.79791 -1.40219,-1.27484 -1.30888,-1.50245 0.18425,-0.56708 1.94203,-0.44616 1.88373,-0.20719 0.31402,-0.75811 -1.18549,-1.4785 -1.05774,-1.68871 0.2707,-0.53127 1.98791,-0.13687 1.89295,0.09004 0.42875,-0.69966 -0.93961,-1.64575 -0.78054,-1.83338 0.35047,-0.48238 1.98485,0.17579 1.85556,0.38505 0.53292,-0.62397 -0.67059,-1.77247 -0.48412,-1.93291 0.42162,-0.42162 1.93291,0.48412 1.77247,0.67059 0.62397,-0.53292 -0.38505,-1.85556 -0.17579,-1.98485 0.48238,-0.35047 1.83338,0.78054 1.64575,0.93961 0.69966,-0.42875 -0.09004,-1.89295 0.13687,-1.98791 0.53127,-0.2707 1.68871,1.05774 1.4785,1.18549 0.75811,-0.31402 0.20719,-1.88373 0.44616,-1.94203 0.56708,-0.18425 1.50245,1.30888 1.27484,1.40219 0.79791,-0.19156 0.49932,-1.82812 0.74447,-1.84833 0.58892,-0.09327 1.27919,1.5278 1.0398,1.58435 0.81805,-0.06438 0.77915,-1.7275 1.02445,-1.70911 h 0.59626 l 1.02445,1.70911 0.77915,1.7275 0.81805,0.06438 1.0398,-1.58435 1.27919,-1.5278 0.58892,0.09327 0.74447,1.84833 0.49932,1.82812 0.79791,0.19156 1.27484,-1.40219 1.50245,-1.30888 0.56708,0.18425 0.44616,1.94203 0.20719,1.88373 0.75811,0.31402 1.4785,-1.18549 1.68871,-1.05774 0.53127,0.2707 0.13687,1.98791 -0.09004,1.89295 0.69966,0.42875 1.64575,-0.93961 1.83338,-0.78054 0.48238,0.35047 -0.17579,1.98485 -0.38505,1.85556 0.62397,0.53292 1.77247,-0.67059 1.93291,-0.48412 0.42162,0.42162 -0.48412,1.93291 -0.67059,1.77247 0.53292,0.62397 1.85556,-0.38505 1.98485,-0.17579 0.35047,0.48238 -0.78054,1.83338 -0.93961,1.64575 0.42875,0.69966 1.89295,-0.09004 1.98791,0.13687 0.2707,0.53127 -1.05774,1.68871 -1.18549,1.4785 0.31402,0.75811 1.88373,0.20719 1.94203,0.44616 0.18425,0.56708 -1.30888,1.50245 -1.40219,1.27484 0.19156,0.79791 1.82812,0.49932 1.84833,0.74447 0.09327,0.58892 -1.5278,1.27919 -1.58435,1.0398 z"
           style="fill:none;stroke:#000000;stroke-width:1.22955;stroke-miterlimit:4;stroke-dasharray:none"
           inkscape:connector-curvature="0" />
      </g>
    </g>
    <g
       transform="translate(2.0075548,-1.0037774)"
       id="g2718">
      <rect
         style="opacity:1;fill:#ffffff;fill-opacity:1;fill-rule:evenodd;stroke:#000000;stroke-width:0.503289;stroke-miterlimit:4;stroke-dasharray:none;stroke-opacity:1"
         id="rect2555"
         width="55.535751"
         height="9.6004076"
         x="57.762104"
         y="233.19553" />
      <g
         id="g2686"
         transform="translate(0.15825543,3.3728185)"
         style="stroke-width:0.8;stroke-miterlimit:5.6;stroke-dasharray:none">
        <path
           inkscape:connector-curvature="0"
           id="path2557"
           d="m 60.566343,232.52038 v 5.70224"
           style="fill:none;stroke:#000000;stroke-width:0.8;stroke-linecap:butt;stroke-linejoin:miter;stroke-miterlimit:5.6;stroke-dasharray:none;stroke-opacity:1" />
        <path
           style="fill:none;stroke:#000000;stroke-width:0.8;stroke-linecap:butt;stroke-linejoin:miter;stroke-miterlimit:5.6;stroke-dasharray:none;stroke-opacity:1"
           d="m 63.519873,232.52038 v 5.70224"
           id="path2557-3"
           inkscape:connector-curvature="0" />
        <path
           style="fill:none;stroke:#000000;stroke-width:0.8;stroke-linecap:butt;stroke-linejoin:miter;stroke-miterlimit:5.6;stroke-dasharray:none;stroke-opacity:1"
           d="m 66.473393,232.52038 v 5.70224"
           id="path2557-9"
           inkscape:connector-curvature="0" />
        <path
           style="fill:none;stroke:#000000;stroke-width:0.8;stroke-linecap:butt;stroke-linejoin:miter;stroke-miterlimit:5.6;stroke-dasharray:none;stroke-opacity:1"
           d="m 69.426929,232.52038 v 5.70224"
           id="path2557-1"
           inkscape:connector-curvature="0" />
        <path
           style="fill:none;stroke:#000000;stroke-width:0.8;stroke-linecap:butt;stroke-linejoin:miter;stroke-miterlimit:5.6;stroke-dasharray:none;stroke-opacity:1"
           d="m 72.380455,232.52038 v 5.70224"
           id="path2557-8"
           inkscape:connector-curvature="0" />
        <path
           style="fill:none;stroke:#000000;stroke-width:0.8;stroke-linecap:butt;stroke-linejoin:miter;stroke-miterlimit:5.6;stroke-dasharray:none;stroke-opacity:1"
           d="m 78.287516,232.52038 v 5.70224"
           id="path2557-96"
           inkscape:connector-curvature="0" />
        <path
           style="fill:none;stroke:#000000;stroke-width:0.8;stroke-linecap:butt;stroke-linejoin:miter;stroke-miterlimit:5.6;stroke-dasharray:none;stroke-opacity:1"
           d="m 90.101628,232.52038 v 5.70224"
           id="path2557-2"
           inkscape:connector-curvature="0" />
        <path
           style="fill:none;stroke:#000000;stroke-width:0.8;stroke-linecap:butt;stroke-linejoin:miter;stroke-miterlimit:5.6;stroke-dasharray:none;stroke-opacity:1"
           d="m 101.91574,232.52038 v 5.70224"
           id="path2557-7"
           inkscape:connector-curvature="0" />
        <path
           style="fill:none;stroke:#000000;stroke-width:0.8;stroke-linecap:butt;stroke-linejoin:miter;stroke-miterlimit:5.6;stroke-dasharray:none;stroke-opacity:1"
           d="m 75.333986,232.52038 v 5.70224"
           id="path2557-5"
           inkscape:connector-curvature="0" />
        <path
           style="fill:none;stroke:#000000;stroke-width:0.8;stroke-linecap:butt;stroke-linejoin:miter;stroke-miterlimit:5.6;stroke-dasharray:none;stroke-opacity:1"
           d="m 87.1481,232.52038 v 5.70224"
           id="path2557-0"
           inkscape:connector-curvature="0" />
        <path
           style="fill:none;stroke:#000000;stroke-width:0.8;stroke-linecap:butt;stroke-linejoin:miter;stroke-miterlimit:5.6;stroke-dasharray:none;stroke-opacity:1"
           d="m 84.194569,232.52038 v 5.70224"
           id="path2557-97"
           inkscape:connector-curvature="0" />
        <path
           inkscape:connector-curvature="0"
           id="path2557-3-9"
           d="m 96.008689,232.52038 v 5.70224"
           style="fill:none;stroke:#000000;stroke-width:0.8;stroke-linecap:butt;stroke-linejoin:miter;stroke-miterlimit:5.6;stroke-dasharray:none;stroke-opacity:1" />
        <path
           inkscape:connector-curvature="0"
           id="path2557-9-3"
           d="m 104.86928,232.52038 v 5.70224"
           style="fill:none;stroke:#000000;stroke-width:0.8;stroke-linecap:butt;stroke-linejoin:miter;stroke-miterlimit:5.6;stroke-dasharray:none;stroke-opacity:1" />
        <path
           inkscape:connector-curvature="0"
           id="path2557-1-3"
           d="m 81.241047,232.52038 v 5.70224"
           style="fill:none;stroke:#000000;stroke-width:0.8;stroke-linecap:butt;stroke-linejoin:miter;stroke-miterlimit:5.6;stroke-dasharray:none;stroke-opacity:1" />
        <path
           inkscape:connector-curvature="0"
           id="path2557-8-4"
           d="m 93.055153,232.52038 v 5.70224"
           style="fill:none;stroke:#000000;stroke-width:0.8;stroke-linecap:butt;stroke-linejoin:miter;stroke-miterlimit:5.6;stroke-dasharray:none;stroke-opacity:1" />
        <path
           inkscape:connector-curvature="0"
           id="path2557-96-0"
           d="m 98.962229,232.52038 v 5.70224"
           style="fill:none;stroke:#000000;stroke-width:0.8;stroke-linecap:butt;stroke-linejoin:miter;stroke-miterlimit:5.6;stroke-dasharray:none;stroke-opacity:1" />
        <path
           inkscape:connector-curvature="0"
           id="path2557-2-3"
           d="m 107.82281,232.52038 v 5.70224"
           style="fill:none;stroke:#000000;stroke-width:0.8;stroke-linecap:butt;stroke-linejoin:miter;stroke-miterlimit:5.6;stroke-dasharray:none;stroke-opacity:1" />
        <path
           inkscape:connector-curvature="0"
           id="path2557-7-0"
           d="m 110.77634,232.52038 v 5.70224"
           style="fill:none;stroke:#000000;stroke-width:0.8;stroke-linecap:butt;stroke-linejoin:miter;stroke-miterlimit:5.6;stroke-dasharray:none;stroke-opacity:1" />
      </g>
    </g>
    <rect
       style="opacity:1;fill:#000000;fill-opacity:1;fill-rule:evenodd;stroke:#000000;stroke-width:1.23405;stroke-miterlimit:5.6;stroke-dasharray:none;stroke-opacity:1"
       id="rect2724-4"
       width="8.9805756"
       height="6.8128529"
       x="-105.43723"
       y="72.771606"
       ry="3.4064264"
       transform="rotate(25.667539)" />
    <path
       sodipodi:nodetypes="ccccc"
       inkscape:connector-curvature="0"
       id="path2759"
       d="m 86.843222,160.54208 5.324603,-3.5334 2.692985,8.01689 -6.377915,0.39769 z"
       style="fill:#000000;fill-opacity:1;stroke:#000000;stroke-width:1;stroke-linecap:butt;stroke-linejoin:miter;stroke-miterlimit:5.6;stroke-dasharray:none;stroke-opacity:1" />
  </g>
</svg>
